<svg xmlns="http://www.w3.org/2000/svg" width="44.002" height="31.424" viewBox="0 0 44.002 31.424"><defs><style>.a{fill:#637ab8;}</style></defs><g transform="translate(-0.529 -1.588)"><path class="a" d="M6.794,1.588a1.572,1.572,0,0,0-1.553,1.59V4.743H2.095A1.572,1.572,0,0,0,.529,6.321v9.42a1.572,1.572,0,0,0,.083.5,8.578,8.578,0,0,0,1.949,2.971,9.913,9.913,0,0,0,5.823,2.71v1.43a9.612,9.612,0,0,0,2.971,7.228,9.545,9.545,0,0,0,6.461,2.434,9.544,9.544,0,0,0,6.461-2.434,9.612,9.612,0,0,0,2.971-7.228V11.029a3.858,3.858,0,0,1,1.39-3.214,5.546,5.546,0,0,1,6.636,0,3.865,3.865,0,0,1,1.4,3.214v9.644a6.287,6.287,0,1,0,3.146,0V11.029A7.24,7.24,0,0,0,37.281,5.4a8.654,8.654,0,0,0-10.651,0A7.231,7.231,0,0,0,24.1,11.029V23.35a6.278,6.278,0,0,1-1.949,4.908,6.647,6.647,0,0,1-8.677,0,6.278,6.278,0,0,1-1.949-4.908V21.922a9.893,9.893,0,0,0,5.826-2.713,8.694,8.694,0,0,0,1.958-2.971,1.572,1.572,0,0,0,.083-.5V6.321a1.572,1.572,0,0,0-1.578-1.578H14.67V3.178a1.572,1.572,0,1,0-3.143,0V9.464a1.572,1.572,0,0,0,3.143,0V7.886H16.25v7.471a4.271,4.271,0,0,1-1.114,1.624,6.782,6.782,0,0,1-5.071,1.9h-.025a1.573,1.573,0,0,0-.163,0,6.789,6.789,0,0,1-5.092-1.9,4.241,4.241,0,0,1-1.111-1.624V7.886H5.241V9.464a1.572,1.572,0,0,0,3.143,0V6.447a1.572,1.572,0,0,0,0-.258V3.178a1.572,1.572,0,0,0-1.59-1.59ZM38.224,23.6h.046a3.148,3.148,0,1,1-.046,0Z" transform="translate(0 0)"/></g></svg>