<svg xmlns="http://www.w3.org/2000/svg" width="32" height="29.6" viewBox="0 0 32 29.6"><defs><style>.a{fill:#637ab8;}</style></defs><g transform="translate(-1 -3.7)"><path class="a" d="M29.978,3.7H4.022A3.054,3.054,0,0,0,1,6.722V25.033a3.025,3.025,0,0,0,3.022,3.022H16.111v2.667a19.465,19.465,0,0,0-4.711.844.886.886,0,0,0,.533,1.689,17.125,17.125,0,0,1,10.133,0,.564.564,0,0,0,.267.044.909.909,0,0,0,.844-.622.9.9,0,0,0-.578-1.111,19.09,19.09,0,0,0-4.711-.844V28.056H29.978A3.025,3.025,0,0,0,33,25.033V6.722A3.054,3.054,0,0,0,29.978,3.7Zm1.244,21.333a1.242,1.242,0,0,1-1.244,1.244H4.022a1.242,1.242,0,0,1-1.244-1.244V6.722A1.272,1.272,0,0,1,4.022,5.478H29.978a1.242,1.242,0,0,1,1.244,1.244V25.033Z"/><path class="a" d="M31.156,14.6a2.817,2.817,0,0,0-2.8,2.8,2.9,2.9,0,0,0,.578,1.733l-3.067,4.711a3.454,3.454,0,0,0-.711-.089,2.392,2.392,0,0,0-.978.178l-2.622-3.2A2.764,2.764,0,0,0,19.2,16.467a2.788,2.788,0,0,0-2.8,2.8,3.232,3.232,0,0,0,.311,1.289l-2.311,2.4a2.646,2.646,0,0,0-1.2-.267,2.817,2.817,0,0,0-2.8,2.8,2.8,2.8,0,0,0,5.6,0,3.232,3.232,0,0,0-.311-1.289L18,21.8a2.646,2.646,0,0,0,1.2.267,2.392,2.392,0,0,0,.978-.178l2.622,3.2a2.764,2.764,0,0,0,2.356,4.267,2.788,2.788,0,0,0,2.8-2.8,2.9,2.9,0,0,0-.578-1.733l3.067-4.711a3.454,3.454,0,0,0,.711.089,2.8,2.8,0,0,0,0-5.6ZM13.289,26.467a1.034,1.034,0,0,1-1.022-1.022,1.022,1.022,0,1,1,2.044,0A1.034,1.034,0,0,1,13.289,26.467Zm4.978-7.2a1.034,1.034,0,0,1,1.022-1.022,1.022,1.022,0,1,1,0,2.044A1.034,1.034,0,0,1,18.267,19.267ZM25.2,27.533a1.034,1.034,0,0,1-1.022-1.022,1.022,1.022,0,0,1,2.044,0A1.034,1.034,0,0,1,25.2,27.533Zm5.956-9.156a1.034,1.034,0,0,1-1.022-1.022,1.022,1.022,0,0,1,2.044,0A1.034,1.034,0,0,1,31.156,18.378Z" transform="translate(-5.222 -6.056)"/></g></svg>